<svg width="60" height="60" viewBox="0 0 60 60" fill="none" xmlns="http://www.w3.org/2000/svg">
<path d="M5.80143 8.7566C-1.13367 15.6376 -1.13367 26.7976 5.80137 33.6785L11.9466 39.7836C12.4168 40.2507 13.1766 40.2482 13.6437 39.778C14.1108 39.3078 14.1083 38.5481 13.6381 38.081L7.49233 31.9754C1.50287 26.0326 1.50287 16.4026 7.4918 10.4603C13.4865 4.51295 23.2091 4.51295 29.2038 10.4604C29.6717 10.9246 30.4263 10.9246 30.8942 10.4603C36.8883 4.51295 46.6114 4.51295 52.6056 10.4603C58.5951 16.4026 58.5951 26.0326 52.6056 31.9748L49.732 34.8309C49.262 35.2982 49.2597 36.0579 49.7269 36.528C50.1941 36.998 50.9539 37.0004 51.4239 36.5331L54.2967 33.6778C61.2316 26.7976 61.2316 15.6376 54.296 8.75654C47.6412 2.15373 37.0188 1.89158 30.049 7.97016C23.0787 1.89158 12.4568 2.15373 5.80149 8.75654L5.80143 8.7566Z" fill="#CC8D3E"/>
<path d="M33.5429 15.4407L49.7274 31.6252C50.6124 32.5102 50.6124 33.9459 49.7272 34.8315C48.8418 35.7168 47.4064 35.7168 46.5214 34.8315L40.595 28.9051C40.1264 28.4364 39.3666 28.4364 38.8979 28.9051C38.4293 29.3737 38.4293 30.1335 38.8979 30.6021L44.8241 36.5283C46.6461 38.3511 49.6015 38.3511 51.4243 36.5283C53.2466 34.7053 53.2466 31.7502 51.4243 29.928L35.2399 13.7436C34.7713 13.275 34.0115 13.275 33.5429 13.7436C33.0742 14.2123 33.0742 14.9721 33.5429 15.4407L33.5429 15.4407Z" fill="#CC8D3E"/>
<path d="M32.0609 23.7238L44.8145 36.4774C45.7 37.3629 45.7 38.7984 44.8147 39.6833C43.9289 40.5691 42.4939 40.5691 41.6084 39.6835L35.6828 33.7579C35.2142 33.2893 34.4544 33.2893 33.9858 33.7579C33.5171 34.2265 33.5171 34.9863 33.9858 35.455L39.9113 41.3805C41.7342 43.2034 44.6888 43.2034 46.5116 41.3805C48.3344 39.5585 48.3344 36.6032 46.5116 34.7803L33.758 22.0267C33.2894 21.5581 32.5296 21.5581 32.0609 22.0267C31.5923 22.4954 31.5923 23.2552 32.0609 23.7238Z" fill="#CC8D3E"/>
<path d="M27.2444 28.7323L39.902 41.3899C40.7876 42.2754 40.7876 43.7109 39.9022 44.5958C39.0164 45.4816 37.5814 45.4816 36.6959 44.596L21.7775 29.6776C21.3089 29.209 20.5491 29.209 20.0805 29.6776C19.6118 30.1463 19.6118 30.906 20.0805 31.3747L34.9988 46.293C36.8217 48.1159 39.7763 48.1159 41.5991 46.293C43.4219 44.471 43.4219 41.5157 41.5991 39.6928L28.9415 27.0352C28.4729 26.5666 27.7131 26.5666 27.2444 27.0352C26.7758 27.5038 26.7758 28.2636 27.2444 28.7323ZM33.3723 13.681L23.8383 23.155C23.5549 23.4384 23.1416 23.5417 22.7612 23.4262L20.0004 22.5853C19.5667 22.4534 19.4302 21.9076 19.7507 21.5869L31.214 10.1235C31.6827 9.6549 31.6827 8.89512 31.214 8.42649C30.7454 7.95785 29.9856 7.95785 29.517 8.42649L18.0534 19.8901C16.4522 21.4922 17.1347 24.2223 19.3016 24.8813L22.0629 25.7223C23.2916 26.0955 24.6254 25.7619 25.5326 24.8547L35.0639 15.3834C35.534 14.9162 35.5364 14.1564 35.0693 13.6863C34.6021 13.2162 33.8424 13.2138 33.3723 13.681Z" fill="#CC8D3E"/>
<path d="M20.1787 34.5902C21.0192 33.7497 21.0192 32.3866 20.1787 31.5461L20.0167 31.3841C19.1761 30.5435 17.8131 30.5435 16.9725 31.3841L13.4967 34.8599C12.6562 35.7005 12.6562 37.0635 13.4967 37.904L13.6588 38.066C14.4993 38.9066 15.8624 38.9066 16.7029 38.066L20.1787 34.5902ZM21.8758 36.2873L18.4 39.7631C16.6221 41.5409 13.7396 41.5409 11.9617 39.7631L11.7997 39.6011C10.0218 37.8232 10.0218 34.9406 11.7997 33.1628L15.2755 29.687C17.0533 27.9091 19.9359 27.9091 21.7138 29.687L21.8758 29.849C23.6536 31.6269 23.6536 34.5094 21.8758 36.2873Z" fill="#CC8D3E"/>
<path d="M25.1021 36.4695L24.94 36.3074C24.0995 35.4669 22.7365 35.4669 21.8959 36.3074L18.4201 39.7832C17.5796 40.6238 17.5796 41.9868 18.4201 42.8273L18.5822 42.9894C19.4227 43.8299 20.7858 43.8299 21.6263 42.9894L25.1021 39.5136C25.9426 38.673 25.9426 37.31 25.1021 36.4695ZM23.3233 44.6865C21.5455 46.4643 18.6629 46.4643 16.885 44.6865L16.723 44.5245C14.9452 42.7466 14.9452 39.864 16.723 38.0862L20.1988 34.6104C21.9767 32.8325 24.8592 32.8325 26.6371 34.6104L26.7991 34.7724C28.577 36.5503 28.577 39.4328 26.7991 41.2107L23.3233 44.6865Z" fill="#CC8D3E"/>
<path d="M30.0254 44.4369C30.866 43.5963 30.866 42.2333 30.0254 41.3928L29.8634 41.2308C29.0228 40.3902 27.6598 40.3902 26.8193 41.2308L23.3435 44.7066C22.5029 45.5472 22.5029 46.9102 23.3435 47.7507L23.5055 47.9127C24.3461 48.7533 25.7091 48.7533 26.5496 47.9127L30.0254 44.4369ZM31.7225 46.134L28.2467 49.6097C26.4688 51.3876 23.5862 51.3876 21.8084 49.6097L21.6464 49.4477C19.8685 47.6699 19.8685 44.7873 21.6464 43.0095L25.1222 39.5337C26.9 37.7558 29.7826 37.7558 31.5604 39.5337L31.7225 39.6957C33.5003 41.4735 33.5003 44.3561 31.7225 46.134Z" fill="#CC8D3E"/>
<path d="M34.9487 46.3161L34.7867 46.1541C33.9461 45.3135 32.5831 45.3135 31.7426 46.1541L28.2668 49.6299C27.4262 50.4705 27.4262 51.8335 28.2668 52.674L28.4288 52.836C29.2694 53.6766 30.6324 53.6766 31.473 52.836L34.9487 49.3603C35.7893 48.5197 35.7893 47.1567 34.9487 46.3161ZM33.17 54.5331C31.3922 56.3109 28.5096 56.3109 26.7317 54.5331L26.5697 54.3711C24.7919 52.5932 24.7919 49.7106 26.5697 47.9328L30.0455 44.457C31.8233 42.6792 34.7059 42.6792 36.4838 44.457L36.6458 44.619C38.4236 46.3969 38.4236 49.2795 36.6458 51.0573L33.17 54.5331Z" fill="#CC8D3E"/>
</svg>
