<svg width="60" height="48" viewBox="0 0 60 48" fill="none" xmlns="http://www.w3.org/2000/svg">
<path fill-rule="evenodd" clip-rule="evenodd" d="M0 42.9882V5.01184C0 2.24589 1.9974 0 4.4606 0H55.5364C57.9952 0 60 2.24257 60 5.01184V42.9882C60 45.7558 57.9982 48 55.5364 48H4.4606C1.9974 48 0 45.7558 0 42.9882ZM57.1771 42.9882V5.01184C57.1771 3.99986 56.4415 3.17173 55.5364 3.17173H4.4606C3.55699 3.17173 2.82141 3.99655 2.82141 5.01184V42.9882C2.82141 44.0034 3.55699 44.8283 4.4606 44.8283H55.5364C56.4386 44.8283 57.1771 44.0034 57.1771 42.9882Z" fill="#CC8D3E"/>
<path fill-rule="evenodd" clip-rule="evenodd" d="M4.9541 6.35836C4.9541 5.51864 5.56438 4.83626 6.31027 4.83626C7.05616 4.83626 7.66201 5.51864 7.66201 6.35836C7.66201 7.19477 7.05616 7.87715 6.31027 7.87715C5.56438 7.87715 4.9541 7.19477 4.9541 6.35836ZM8.78822 6.35836C8.78822 5.51864 9.39259 4.83626 10.14 4.83626C10.8873 4.83626 11.4947 5.51864 11.4947 6.35836C11.4947 7.19477 10.8873 7.87715 10.14 7.87715C9.39259 7.87715 8.78822 7.19477 8.78822 6.35836ZM12.6194 6.35836C12.6194 5.51864 13.2267 4.83626 13.9711 4.83626C14.7155 4.83626 15.3258 5.51864 15.3258 6.35836C15.3258 7.19477 14.7155 7.87715 13.9711 7.87715C13.2267 7.87715 12.6194 7.19477 12.6194 6.35836Z" fill="#CC8D3E"/>
<path fill-rule="evenodd" clip-rule="evenodd" d="M6.68947 42.1981L6.68652 41.1034L18.5029 26.8744H30.2322L35.0938 35.3644L52.3082 13.5813V42.1981H6.68947Z" fill="#CC8D3E"/>
<path fill-rule="evenodd" clip-rule="evenodd" d="M6.68947 36.3946V34.4717H8.39942V36.3946H6.68947ZM6.68947 30.5878V28.6682H8.39942V30.5878H6.68947ZM12.1451 30.5878V28.6682H13.8536V30.5878H12.1451ZM34.2329 30.5878V28.6682H35.9443V30.5878H34.2329ZM6.68652 24.7876V22.868H8.39647V24.7876H6.68652ZM12.1421 24.7876V22.868H13.8506V24.7876H12.1421ZM17.7407 24.7876V22.8713H19.4507V24.7876H17.7407ZM23.1978 24.7876V22.8713H24.9063V24.7876H23.1978ZM28.6535 24.7876V22.868H30.359V24.7876H28.6535ZM34.2299 24.7876V22.868H35.9414V24.7876H34.2299ZM39.6856 24.7876V22.868H41.3955V24.7876H39.6856ZM6.68652 18.984V17.0611H8.39647V18.984H6.68652ZM12.1421 18.984V17.0611H13.8506V18.984H12.1421ZM17.7407 18.984V17.0661H19.4507V18.984H17.7407ZM23.1978 18.984V17.0661H24.9063V18.984H23.1978ZM28.6535 18.984V17.0611H30.359V18.984H28.6535ZM34.2299 18.984V17.0611H35.9414V18.984H34.2299ZM39.6856 18.984V17.0611H41.3955V18.984H39.6856ZM45.1441 18.9807V17.0611H46.8497V18.9807H45.1441ZM6.68652 13.1788V11.2576H8.39647V13.1788H6.68652ZM12.1421 13.1788V11.2576H13.8506V13.1788H12.1421ZM17.7407 13.1788V11.2609H19.4507V13.1788H17.7407ZM23.1978 13.1788V11.2609H24.9063V13.1788H23.1978ZM28.6535 13.1788V11.2576H30.359V13.1788H28.6535ZM34.2299 13.1788V11.2576H35.9414V13.1788H34.2299ZM39.6856 13.1788V11.2576H41.3955V13.1788H39.6856ZM45.1441 13.1739V11.2576H46.8497V13.1739H45.1441ZM50.5983 13.1739V11.2543H52.3053V13.1739H50.5983Z" fill="#CC8D3E"/>
</svg>
