<svg width="65" height="64" viewBox="0 0 65 64" fill="none" xmlns="http://www.w3.org/2000/svg">
<g clip-path="url(#clip0_3089_1186)">
<path d="M53.8334 19.7334V47.7334C53.8334 52.2667 50.3667 55.7334 45.8334 55.7334H16.2334C16.2334 58.6667 18.6334 61.0667 21.5667 61.0667H48.5001C54.3667 61.0667 59.1667 56.2667 59.1667 50.4001V25.0667C59.1667 22.1334 56.7667 19.7334 53.8334 19.7334Z" fill="#CC8D3E"/>
<path d="M13.8335 2.93335V8.26668H11.1668C8.2335 8.26668 5.8335 10.6667 5.8335 13.6V45.6C5.8335 48.5334 8.2335 50.9333 11.1668 50.9333H43.7002C46.6335 50.9333 49.0335 48.5334 49.0335 45.6V13.6C49.0335 10.6667 46.6335 8.26668 43.7002 8.26668H41.0335V2.93335H35.7002V8.26668H19.1668V2.93335H13.8335ZM11.1668 21.6H43.7002V45.6H11.1668V21.6Z" fill="#CC8D3E"/>
<path d="M37.0333 43.4667L30.6333 39.7333L24.5 43.4667L26.1 36.2667L20.5 31.4667L27.9667 30.9333L30.9 24L33.8333 30.6667L41.3 31.4667L35.7 36.2667L37.0333 43.4667Z" fill="#CC8D3E"/>
</g>
<defs>
<clipPath id="clip0_3089_1186">
<rect width="64" height="64" fill="white" transform="translate(0.5)"/>
</clipPath>
</defs>
</svg>
