<svg width="60" height="48" viewBox="0 0 60 48" fill="none" xmlns="http://www.w3.org/2000/svg">
<g clip-path="url(#clip0_3267_1005)">
<path d="M6 0C4.4087 0 2.88258 0.632141 1.75736 1.75736C0.632141 2.88258 0 4.4087 0 6V18C1.5913 18 3.11742 18.6321 4.24264 19.7574C5.36786 20.8826 6 22.4087 6 24C6 25.5913 5.36786 27.1174 4.24264 28.2426C3.11742 29.3679 1.5913 30 0 30V42C0 43.5913 0.632141 45.1174 1.75736 46.2426C2.88258 47.3679 4.4087 48 6 48H54C55.5913 48 57.1174 47.3679 58.2426 46.2426C59.3679 45.1174 60 43.5913 60 42V30C58.4087 30 56.8826 29.3679 55.7574 28.2426C54.6321 27.1174 54 25.5913 54 24C54 22.4087 54.6321 20.8826 55.7574 19.7574C56.8826 18.6321 58.4087 18 60 18V6C60 4.4087 59.3679 2.88258 58.2426 1.75736C57.1174 0.632141 55.5913 0 54 0H6ZM40.5 9L45 13.5L19.5 39L15 34.5L40.5 9ZM20.43 9.12C23.37 9.12 25.74 11.49 25.74 14.43C25.74 15.8383 25.1806 17.1889 24.1847 18.1847C23.1889 19.1806 21.8383 19.74 20.43 19.74C17.49 19.74 15.12 17.37 15.12 14.43C15.12 13.0217 15.6794 11.6711 16.6753 10.6753C17.6711 9.67945 19.0217 9.12 20.43 9.12ZM39.57 28.26C42.51 28.26 44.88 30.63 44.88 33.57C44.88 34.9783 44.3206 36.3289 43.3247 37.3247C42.3289 38.3206 40.9783 38.88 39.57 38.88C36.63 38.88 34.26 36.51 34.26 33.57C34.26 32.1617 34.8194 30.8111 35.8153 29.8153C36.8111 28.8194 38.1617 28.26 39.57 28.26Z" fill="#CC8D3E"/>
</g>
<defs>
<clipPath id="clip0_3267_1005">
<rect width="60" height="48" fill="white"/>
</clipPath>
</defs>
</svg>
