<svg width="65" height="64" viewBox="0 0 65 64" fill="none" xmlns="http://www.w3.org/2000/svg">
<path fill-rule="evenodd" clip-rule="evenodd" d="M56.4998 32.0001C56.4998 25.6349 53.9713 19.5304 49.4704 15.0295C44.9695 10.5286 38.865 8.00008 32.4998 8.00008V2.66675C48.6998 2.66675 61.8332 15.8001 61.8332 32.0001C61.8332 48.2001 48.6998 61.3334 32.4998 61.3334C16.2998 61.3334 3.1665 48.2001 3.1665 32.0001H8.49984C8.49984 35.1518 9.12062 38.2727 10.3267 41.1845C11.5328 44.0963 13.3007 46.742 15.5293 48.9706C17.7579 51.1992 20.4036 52.9671 23.3154 54.1732C26.2272 55.3793 29.3481 56.0001 32.4998 56.0001C35.6516 56.0001 38.7724 55.3793 41.6842 54.1732C44.5961 52.9671 47.2418 51.1992 49.4704 48.9706C51.699 46.742 53.4668 44.0963 54.673 41.1845C55.8791 38.2727 56.4998 35.1518 56.4998 32.0001ZM10.8998 21.5281C10.0239 23.3296 9.37876 25.2344 8.97984 27.1974L3.75317 26.1361C4.24917 23.7014 5.04384 21.3734 6.09984 19.1974L10.8998 21.5281ZM13.2998 17.6001C14.6657 15.7812 16.2817 14.1643 18.0998 12.7974L14.8998 8.53075C12.6776 10.2001 10.7025 12.1752 9.03317 14.3974L13.2998 17.6001ZM27.6972 8.48008C25.7341 8.879 23.8293 9.5241 22.0278 10.4001L19.6972 5.60008C21.9013 4.5293 24.2317 3.74085 26.6332 3.25341L27.6945 8.48008H27.6972ZM29.1665 20.0001V28.6667H20.4998V35.3334H29.1665V44.0001H35.8332V35.3334H44.4998V28.6667H35.8332V20.0001H29.1665Z" fill="#CC8D3E"/>
</svg>
